<svg id="Capa_1" enable-background="new 0 0 512 512" height="512" viewBox="0 0 512 512" width="512" xmlns="http://www.w3.org/2000/svg"><g><g><g><path d="m256 151.383v322.764l5.238-.775 250.762 38.628v-307.326z" fill="#fed943"/><path d="m0 204.674v307.326l256-37.853 35.004-111.747-35.004-211.017z" fill="#ffee42"/></g><g><path d="m0 512h256l44.767-55.472-44.767-177.726z" fill="#fff58e"/><path d="m256 278.802v233.198h256z" fill="#ffee42"/></g><g><path d="m0 151.383v53.291l82.468 70.007 173.532-68.475v-54.823z" fill="#fed943"/><path d="m256 151.383v54.823l173.532 68.475 82.468-70.007v-53.291z" fill="#fcbe2c"/></g></g><g><g><path d="m82.468 0v274.681l173.532 147.313 35.004-241.939-35.004-180.055z" fill="#edf5ff"/><path d="m256 0v421.994l173.532-147.313v-274.681z" fill="#d6e8fd"/></g></g></g><g><g><g><g><path d="m156.995 159.708h45.621v30h-45.621z" fill="#6058ad"/><path d="m308.695 159.708h48.36v30h-48.36z" fill="#453f81"/></g><g><path d="m156.995 217.229h42.328v30h-42.328z" fill="#6058ad"/></g><g><path d="m314.726 217.229h42.328v30h-42.328z" fill="#453f81"/></g><path d="m186.174 273.537h39.694v29.999h-39.694z" fill="#6058ad" transform="matrix(.633 -.774 .774 .633 -147.772 265.54)"/><path d="m290.979 268.69h29.999v39.694h-29.999z" fill="#453f81" transform="matrix(.774 -.633 .633 .774 -113.526 258.658)"/><g><g><path d="m191.021 77.746h30v53.785h-30z" fill="#453f81" transform="matrix(.758 -.653 .653 .758 -18.35 159.877)"/></g><g><path d="m279.086 89.638h53.785v30h-53.785z" fill="#2d2854" transform="matrix(.653 -.758 .758 .653 26.957 268.097)"/></g></g></g></g><g><path d="m187.427 159.708 68.573 29.894 10.575-50.091-10.575-39.503c-34.942 0-63.906 26.021-68.573 59.7z" fill="#6058ad"/><path d="m324.573 159.708c-4.667-33.679-33.631-59.699-68.573-59.699v89.593z" fill="#453f81"/></g><g><path d="m187.427 159.708c-.433 3.123-.674 6.307-.674 9.548v54.247c0 38.183 31.064 69.248 69.247 69.248l22.205-66.521-22.205-66.522z" fill="#453f81"/><path d="m324.573 159.708h-68.573v133.042c38.183 0 69.247-31.064 69.247-69.248v-54.247c0-3.24-.241-6.424-.674-9.547z" fill="#2d2854"/></g></g></svg>