<?xml version="1.0" encoding="utf-8"?>
<!-- Svg Vector Icons : http://www.onlinewebfonts.com/icon -->
<!DOCTYPE svg PUBLIC "-//W3C//DTD SVG 1.1//EN" "http://www.w3.org/Graphics/SVG/1.1/DTD/svg11.dtd">
<svg version="1.1" xmlns="http://www.w3.org/2000/svg" xmlns:xlink="http://www.w3.org/1999/xlink" x="0px" y="0px" viewBox="0 0 1000 1000" enable-background="new 0 0 1000 1000" xml:space="preserve">
<metadata> Svg Vector Icons : http://www.onlinewebfonts.com/icon </metadata>
<g><g transform="translate(0.000000,252.000000) scale(0.100000,-0.100000)"><path d="M3818,2318.1c-293.9-152.8-544.7-348.7-791.5-623c-176.3-192-325.2-305.6-654.4-485.9C1302.3,613.6,742-25.1,428.5-1008.6C307-1384.8,271.8-2517.2,365.8-3046.2C608.7-4449,1443.4-5636.3,2556.2-6165.3c199.8-94.1,246.9-101.9,254.7-54.9c15.7,74.5,78.4,74.5,266.4-3.9c168.5-66.6,156.7-54.9-98,141c-215.5,164.6-372.3,380.1-466.3,642.6c-164.6,438.8-152.8,458.4,117.6,235.1c266.4-227.3,775.8-446.7,775.8-337c0,15.7-43.1,90.1-98,164.6c-117.6,156.7-121.5,195.9-27.4,195.9c82.3,0,2989.8-975.7,3040.7-1022.7c90.2-78.4-325.2-458.5-956.1-873.8c-254.7-168.5-313.5-223.3-262.5-242.9c145-54.9,1007,101.9,1344,242.9c313.5,133.3,250.8,19.6-101.9-180.2L6129.9-7380l176.3,27.4c505.4,74.5,999.2,297.8,1363.6,615.2c141.1,121.5,274.3,207.7,305.6,195.9c121.5-47,889.5,877.7,1132.4,1359.7c211.6,427.1,387.9,1011,517.2,1704.5c74.4,419.3,86.2,1696.7,15.7,2096.4C9488-530.6,8966.8,374.6,8328.1,903.6c-427.1,348.8-1359.7,779.8-1974.9,905.2c-540.8,113.6-1700.6,113.6-2182.6,0l-117.6-27.4l133.2,145c192,199.8,121.5,219.4-133.2,39.2c-325.2-227.3-450.6-301.7-478.1-274.3c-31.3,31.4,156.7,274.3,407.5,525.1c172.4,172.4,188.1,203.8,117.5,203.8C4053.1,2420,3927.7,2373,3818,2318.1z M2070.3-342.5c62.7-31.3,133.2-109.7,156.7-180.2c86.2-242.9,35.3-740.6-74.4-740.6c-23.5,0-156.7,176.3-297.8,395.8c-231.2,352.7-254.7,403.6-215.5,489.8c31.4,74.4,70.6,94,180.3,94C1897.9-283.7,2011.5-311.2,2070.3-342.5z M3281.1-483.6c15.7-184.2-74.5-278.2-242.9-262.5c-98,7.8-125.4,31.3-133.2,113.6c-15.7,145,129.3,317.4,262.5,301.7C3253.7-342.5,3269.4-362.1,3281.1-483.6z M1882.2-1157.5c129.3-192,250.8-427.1,274.3-521.2c35.3-129.3,70.5-188.1,137.1-211.6c98-39.2,211.6-188.1,791.5-1038.4c290-423.2,364.4-509.4,438.9-497.6c47,3.9,619.1,219.5,1269.6,474.2c1461.6,576,1833.9,713.1,1971,721l109.7,7.8l-3.9-450.6c0-368.3-15.6-493.7-90.1-685.7c-152.8-415.3-152.8-387.9,19.6-313.5c199.9,82.3,450.6,278.2,583.9,458.5c62.7,78.4,129.3,137.1,148.9,121.5c101.9-62.7-133.2-1077.6-431-1833.8c-74.5-192-227.3-517.2-337-713.2c-235.1-438.9-199.9-431-913-203.8c-948.2,297.8-4423.9,1457.7-4525.8,1508.6c-82.3,39.2-125.4,117.6-203.7,376.2c-117.6,368.3-203.8,818.9-246.9,1246.1l-27.4,293.9l219.4-203.8c121.5-113.6,250.8-207.7,293.9-207.7c70.5,0,66.6,15.7-23.5,286c-168.5,485.9-121.5,1340.1,98,1763.3c54.8,109.7,58.8,109.7,137.1,39.2C1615.8-781.4,1756.8-969.5,1882.2-1157.5z M4652.6-793.1c623-70.5,1818.2-321.3,1892.6-395.8c78.4-78.4,282.1-693.6,246.8-748.4c-11.7-15.7-78.4-62.7-145-98c-242.9-125.4-3103.4-1253.9-3146.5-1238.2c-43.1,15.7-869.9,1246.1-975.7,1453.7c-82.3,168.5-62.7,211.6,129.3,313.5c86.2,43.1,239,145,344.8,223.4c219.5,168.5,372.3,246.9,740.6,384C4170.6-742.2,4190.2-738.3,4652.6-793.1z"/></g></g>
</svg>